<?xml version="1.0" encoding="UTF-8" standalone="no"?>
<!DOCTYPE svg PUBLIC "-//W3C//DTD SVG 1.1//EN"
 "http://www.w3.org/Graphics/SVG/1.1/DTD/svg11.dtd">
<!-- Generated by graphviz version 12.2.1 (20241206.2353)
 -->
<!-- Pages: 1 -->
<svg width="7194pt" height="922pt"
 viewBox="0.00 0.00 2589.81 332.00" xmlns="http://www.w3.org/2000/svg" xmlns:xlink="http://www.w3.org/1999/xlink">
<g id="graph0" class="graph" transform="scale(2.77778 2.77778) rotate(0) translate(4 328)">
<polygon fill="white" stroke="none" points="-4,4 -4,-328 2585.81,-328 2585.81,4 -4,4"/>
<!-- 0 -->
<g id="node1" class="node">
<title>0</title>
<ellipse fill="none" stroke="black" cx="1846.63" cy="-18" rx="29.28" ry="18"/>
<text text-anchor="middle" x="1846.63" y="-13.8" font-family="Times,serif" font-size="14.00">IRIS</text>
</g>
<!-- 1 -->
<g id="node2" class="node">
<title>1</title>
<ellipse fill="none" stroke="black" cx="1229.63" cy="-234" rx="39.46" ry="18"/>
<text text-anchor="middle" x="1229.63" y="-229.8" font-family="Times,serif" font-size="14.00">Gender</text>
</g>
<!-- 15 -->
<g id="node16" class="node">
<title>15</title>
<ellipse fill="none" stroke="black" cx="1229.63" cy="-162" rx="174.06" ry="18"/>
<text text-anchor="middle" x="1229.63" y="-157.8" font-family="Times,serif" font-size="14.00">genus_Erysipelotrichaceae_incertae_sedis</text>
</g>
<!-- 1&#45;&gt;15 -->
<g id="edge6" class="edge">
<title>1&#45;&gt;15</title>
<path fill="none" stroke="black" d="M1229.63,-215.7C1229.63,-208.41 1229.63,-199.73 1229.63,-191.54"/>
<polygon fill="black" stroke="black" points="1233.13,-191.62 1229.63,-181.62 1226.13,-191.62 1233.13,-191.62"/>
</g>
<!-- 2 -->
<g id="node3" class="node">
<title>2</title>
<ellipse fill="none" stroke="black" cx="1579.63" cy="-234" rx="46.44" ry="18"/>
<text text-anchor="middle" x="1579.63" y="-229.8" font-family="Times,serif" font-size="14.00">Ethnicity</text>
</g>
<!-- 7 -->
<g id="node8" class="node">
<title>7</title>
<ellipse fill="none" stroke="black" cx="1517.63" cy="-162" rx="96.32" ry="18"/>
<text text-anchor="middle" x="1517.63" y="-157.8" font-family="Times,serif" font-size="14.00">genus_Butyricicoccus</text>
</g>
<!-- 2&#45;&gt;7 -->
<g id="edge7" class="edge">
<title>2&#45;&gt;7</title>
<path fill="none" stroke="black" d="M1565.25,-216.76C1557.88,-208.44 1548.73,-198.1 1540.42,-188.73"/>
<polygon fill="black" stroke="black" points="1543.06,-186.42 1533.8,-181.26 1537.82,-191.06 1543.06,-186.42"/>
</g>
<!-- 14 -->
<g id="node15" class="node">
<title>14</title>
<ellipse fill="none" stroke="black" cx="1016.63" cy="-90" rx="88.81" ry="18"/>
<text text-anchor="middle" x="1016.63" y="-85.8" font-family="Times,serif" font-size="14.00">genus_Coprococcus</text>
</g>
<!-- 2&#45;&gt;14 -->
<g id="edge8" class="edge">
<title>2&#45;&gt;14</title>
<path fill="none" stroke="black" d="M1597.26,-217.24C1616.61,-198.08 1642.46,-165.63 1622.63,-144 1618.35,-139.32 1278.45,-111.76 1109.65,-98.34"/>
<polygon fill="black" stroke="black" points="1110.04,-94.86 1099.8,-97.55 1109.49,-101.83 1110.04,-94.86"/>
</g>
<!-- 2&#45;&gt;15 -->
<g id="edge9" class="edge">
<title>2&#45;&gt;15</title>
<path fill="none" stroke="black" d="M1539.14,-224.9C1485.51,-214.18 1389.43,-194.96 1318.5,-180.77"/>
<polygon fill="black" stroke="black" points="1319.32,-177.37 1308.83,-178.84 1317.95,-184.23 1319.32,-177.37"/>
</g>
<!-- 24 -->
<g id="node25" class="node">
<title>24</title>
<ellipse fill="none" stroke="black" cx="1846.63" cy="-90" rx="121.52" ry="18"/>
<text text-anchor="middle" x="1846.63" y="-85.8" font-family="Times,serif" font-size="14.00">genus_unclassified_Bacteria</text>
</g>
<!-- 2&#45;&gt;24 -->
<g id="edge10" class="edge">
<title>2&#45;&gt;24</title>
<path fill="none" stroke="black" d="M1625.75,-230.75C1695.06,-226.3 1820.94,-213.69 1848.63,-180 1862.35,-163.31 1860.5,-138.31 1855.98,-119.06"/>
<polygon fill="black" stroke="black" points="1859.43,-118.4 1853.42,-109.67 1852.67,-120.24 1859.43,-118.4"/>
</g>
<!-- 3 -->
<g id="node4" class="node">
<title>3</title>
<ellipse fill="none" stroke="black" cx="2458.63" cy="-162" rx="89.88" ry="18"/>
<text text-anchor="middle" x="2458.63" y="-157.8" font-family="Times,serif" font-size="14.00">genus_Akkermansia</text>
</g>
<!-- 4 -->
<g id="node5" class="node">
<title>4</title>
<ellipse fill="none" stroke="black" cx="2058.63" cy="-90" rx="72.73" ry="18"/>
<text text-anchor="middle" x="2058.63" y="-85.8" font-family="Times,serif" font-size="14.00">genus_Alistipes</text>
</g>
<!-- 5 -->
<g id="node6" class="node">
<title>5</title>
<ellipse fill="none" stroke="black" cx="1339.63" cy="-90" rx="81.83" ry="18"/>
<text text-anchor="middle" x="1339.63" y="-85.8" font-family="Times,serif" font-size="14.00">genus_Barnesiella</text>
</g>
<!-- 6 -->
<g id="node7" class="node">
<title>6</title>
<ellipse fill="none" stroke="black" cx="453.63" cy="-90" rx="66.29" ry="18"/>
<text text-anchor="middle" x="453.63" y="-85.8" font-family="Times,serif" font-size="14.00">genus_Blautia</text>
</g>
<!-- 8 -->
<g id="node9" class="node">
<title>8</title>
<ellipse fill="none" stroke="black" cx="2282.63" cy="-90" rx="95.26" ry="18"/>
<text text-anchor="middle" x="2282.63" y="-85.8" font-family="Times,serif" font-size="14.00">genus_Butyricimonas</text>
</g>
<!-- 8&#45;&gt;0 -->
<g id="edge1" class="edge">
<title>8&#45;&gt;0</title>
<path fill="none" stroke="black" d="M2211.61,-77.6C2118.85,-62.7 1959.62,-37.14 1886.04,-25.33"/>
<polygon fill="black" stroke="black" points="1886.91,-21.92 1876.48,-23.79 1885.8,-28.83 1886.91,-21.92"/>
</g>
<!-- 9 -->
<g id="node10" class="node">
<title>9</title>
<ellipse fill="none" stroke="black" cx="638.63" cy="-306" rx="97.14" ry="18"/>
<text text-anchor="middle" x="638.63" y="-301.8" font-family="Times,serif" font-size="14.00">genus_Clostridium.IV</text>
</g>
<!-- 10 -->
<g id="node11" class="node">
<title>10</title>
<ellipse fill="none" stroke="black" cx="415.63" cy="-306" rx="107.87" ry="18"/>
<text text-anchor="middle" x="415.63" y="-301.8" font-family="Times,serif" font-size="14.00">genus_Clostridium.XlVa</text>
</g>
<!-- 10&#45;&gt;6 -->
<g id="edge17" class="edge">
<title>10&#45;&gt;6</title>
<path fill="none" stroke="black" d="M418.68,-287.85C425.2,-251.14 440.55,-164.66 448.57,-119.53"/>
<polygon fill="black" stroke="black" points="452.01,-120.18 450.31,-109.72 445.12,-118.96 452.01,-120.18"/>
</g>
<!-- 10&#45;&gt;8 -->
<g id="edge24" class="edge">
<title>10&#45;&gt;8</title>
<path fill="none" stroke="black" d="M490.69,-292.66C504.6,-290.78 519.03,-289.1 532.63,-288 588.71,-283.45 2518.21,-292.13 2557.63,-252 2591.27,-217.76 2588.2,-181.01 2557.63,-144 2535.6,-117.32 2453.07,-103.92 2384.12,-97.29"/>
<polygon fill="black" stroke="black" points="2384.52,-93.81 2374.25,-96.38 2383.88,-100.78 2384.52,-93.81"/>
</g>
<!-- 17 -->
<g id="node18" class="node">
<title>17</title>
<ellipse fill="none" stroke="black" cx="93.63" cy="-234" rx="93.63" ry="18"/>
<text text-anchor="middle" x="93.63" y="-229.8" font-family="Times,serif" font-size="14.00">genus_Flavonifractor</text>
</g>
<!-- 10&#45;&gt;17 -->
<g id="edge26" class="edge">
<title>10&#45;&gt;17</title>
<path fill="none" stroke="black" d="M351.63,-291.09C294.13,-278.59 210.32,-260.37 153.98,-248.12"/>
</g>
<!-- 11 -->
<g id="node12" class="node">
<title>11</title>
<ellipse fill="none" stroke="black" cx="279.63" cy="-162" rx="108.41" ry="18"/>
<text text-anchor="middle" x="279.63" y="-157.8" font-family="Times,serif" font-size="14.00">genus_Clostridium.XlVb</text>
</g>
<!-- 11&#45;&gt;0 -->
<g id="edge2" class="edge">
<title>11&#45;&gt;0</title>
<path fill="none" stroke="black" d="M292.42,-143.73C309.39,-122.36 341.57,-86.99 378.63,-72 514.02,-17.27 1582.2,-18.05 1805.71,-18.82"/>
<polygon fill="black" stroke="black" points="1805.66,-22.32 1815.67,-18.86 1805.68,-15.32 1805.66,-22.32"/>
</g>
<!-- 11&#45;&gt;6 -->
<g id="edge18" class="edge">
<title>11&#45;&gt;6</title>
<path fill="none" stroke="black" d="M319.55,-144.94C345.68,-134.43 379.92,-120.65 407.26,-109.66"/>
<polygon fill="black" stroke="black" points="408.37,-112.98 416.34,-106 405.76,-106.49 408.37,-112.98"/>
</g>
<!-- 12 -->
<g id="node13" class="node">
<title>12</title>
<ellipse fill="none" stroke="black" cx="2026.63" cy="-234" rx="134.96" ry="18"/>
<text text-anchor="middle" x="2026.63" y="-229.8" font-family="Times,serif" font-size="14.00">genus_Clostridium.sensu.stricto</text>
</g>
<!-- 12&#45;&gt;3 -->
<g id="edge11" class="edge">
<title>12&#45;&gt;3</title>
<path fill="none" stroke="black" d="M2112.23,-219.67C2179.52,-209.12 2275.6,-193.9 2359.63,-180 2366.58,-178.85 2373.79,-177.64 2381.02,-176.42"/>
<polygon fill="black" stroke="black" points="2381.59,-179.87 2390.86,-174.75 2380.42,-172.97 2381.59,-179.87"/>
</g>
<!-- 12&#45;&gt;7 -->
<g id="edge22" class="edge">
<title>12&#45;&gt;7</title>
<path fill="none" stroke="black" d="M1935.05,-220.4C1841.35,-207.52 1696.84,-187.65 1604.79,-174.99"/>
<polygon fill="black" stroke="black" points="1605.44,-171.54 1595.05,-173.65 1604.48,-178.48 1605.44,-171.54"/>
</g>
<!-- 25 -->
<g id="node26" class="node">
<title>25</title>
<ellipse fill="none" stroke="black" cx="2026.63" cy="-162" rx="130.65" ry="18"/>
<text text-anchor="middle" x="2026.63" y="-157.8" font-family="Times,serif" font-size="14.00">genus_unclassified_Firmicutes</text>
</g>
<!-- 12&#45;&gt;25 -->
<g id="edge29" class="edge">
<title>12&#45;&gt;25</title>
<path fill="none" stroke="black" d="M2026.63,-215.7C2026.63,-204.85 2026.63,-190.92 2026.63,-180.1"/>
</g>
<!-- 13 -->
<g id="node14" class="node">
<title>13</title>
<ellipse fill="none" stroke="black" cx="859.63" cy="-234" rx="80.24" ry="18"/>
<text text-anchor="middle" x="859.63" y="-229.8" font-family="Times,serif" font-size="14.00">genus_Collinsella</text>
</g>
<!-- 13&#45;&gt;6 -->
<g id="edge19" class="edge">
<title>13&#45;&gt;6</title>
<path fill="none" stroke="black" d="M800.83,-221.33C790.77,-219.46 780.41,-217.61 770.63,-216 655.53,-197.05 608.89,-242.89 510.63,-180 498.71,-172.37 480.44,-141.58 467.81,-118.34"/>
<polygon fill="black" stroke="black" points="470.97,-116.81 463.17,-109.64 464.79,-120.1 470.97,-116.81"/>
</g>
<!-- 13&#45;&gt;7 -->
<g id="edge23" class="edge">
<title>13&#45;&gt;7</title>
<path fill="none" stroke="black" d="M916.93,-221.08C927.44,-219.17 938.34,-217.38 948.63,-216 1153.65,-188.55 1207.25,-204.55 1412.63,-180 1420.7,-179.04 1429.1,-177.9 1437.47,-176.68"/>
<polygon fill="black" stroke="black" points="1437.98,-180.15 1447.35,-175.2 1436.94,-173.22 1437.98,-180.15"/>
</g>
<!-- 23 -->
<g id="node24" class="node">
<title>23</title>
<ellipse fill="none" stroke="black" cx="615.63" cy="-162" rx="95.79" ry="18"/>
<text text-anchor="middle" x="615.63" y="-157.8" font-family="Times,serif" font-size="14.00">genus_Ruminococcus</text>
</g>
<!-- 13&#45;&gt;23 -->
<g id="edge30" class="edge">
<title>13&#45;&gt;23</title>
<path fill="none" stroke="black" d="M811.43,-219.17C773.05,-208.16 719.07,-192.68 677.51,-180.75"/>
<polygon fill="black" stroke="black" points="678.72,-177.46 668.14,-178.06 676.79,-184.19 678.72,-177.46"/>
</g>
<!-- 15&#45;&gt;14 -->
<g id="edge31" class="edge">
<title>15&#45;&gt;14</title>
<path fill="none" stroke="black" d="M1178.89,-144.32C1146.94,-133.82 1105.66,-120.26 1072.74,-109.44"/>
<polygon fill="black" stroke="black" points="1073.95,-106.15 1063.36,-106.36 1071.77,-112.8 1073.95,-106.15"/>
</g>
<!-- 16 -->
<g id="node17" class="node">
<title>16</title>
<ellipse fill="none" stroke="black" cx="2443.63" cy="-234" rx="104.89" ry="18"/>
<text text-anchor="middle" x="2443.63" y="-229.8" font-family="Times,serif" font-size="14.00">genus_Faecalibacterium</text>
</g>
<!-- 16&#45;&gt;3 -->
<g id="edge12" class="edge">
<title>16&#45;&gt;3</title>
<path fill="none" stroke="black" d="M2447.34,-215.7C2448.92,-208.32 2450.81,-199.52 2452.58,-191.25"/>
<polygon fill="black" stroke="black" points="2455.98,-192.1 2454.65,-181.58 2449.13,-190.63 2455.98,-192.1"/>
</g>
<!-- 17&#45;&gt;11 -->
<g id="edge27" class="edge">
<title>17&#45;&gt;11</title>
<path fill="none" stroke="black" d="M134.91,-217.46C161.98,-207.28 197.63,-193.86 226.77,-182.9"/>
<polygon fill="black" stroke="black" points="227.64,-186.31 235.76,-179.51 225.17,-179.76 227.64,-186.31"/>
</g>
<!-- 18 -->
<g id="node19" class="node">
<title>18</title>
<ellipse fill="none" stroke="black" cx="602.63" cy="-234" rx="158.51" ry="18"/>
<text text-anchor="middle" x="602.63" y="-229.8" font-family="Times,serif" font-size="14.00">genus_Lachnospiracea_incertae_sedis</text>
</g>
<!-- 18&#45;&gt;6 -->
<g id="edge20" class="edge">
<title>18&#45;&gt;6</title>
<path fill="none" stroke="black" d="M535.9,-217.26C514.68,-209.27 492.81,-197.42 477.63,-180 463.17,-163.39 457.32,-138.91 455,-119.83"/>
<polygon fill="black" stroke="black" points="458.5,-119.63 454.09,-109.99 451.53,-120.27 458.5,-119.63"/>
</g>
<!-- 26 -->
<g id="node27" class="node">
<title>26</title>
<ellipse fill="none" stroke="black" cx="883.63" cy="-162" rx="154.22" ry="18"/>
<text text-anchor="middle" x="883.63" y="-157.8" font-family="Times,serif" font-size="14.00">genus_unclassified_Lachnospiraceae</text>
</g>
<!-- 18&#45;&gt;26 -->
<g id="edge34" class="edge">
<title>18&#45;&gt;26</title>
<path fill="none" stroke="black" d="M666.4,-217.12C712.39,-205.66 774.19,-190.26 820.12,-178.82"/>
</g>
<!-- 19 -->
<g id="node20" class="node">
<title>19</title>
<ellipse fill="none" stroke="black" cx="1754.63" cy="-162" rx="84.51" ry="18"/>
<text text-anchor="middle" x="1754.63" y="-157.8" font-family="Times,serif" font-size="14.00">genus_Odoribacter</text>
</g>
<!-- 19&#45;&gt;0 -->
<g id="edge3" class="edge">
<title>19&#45;&gt;0</title>
<path fill="none" stroke="black" d="M1737.46,-144.01C1720.77,-125.38 1700.07,-95.08 1715.63,-72 1735.76,-42.15 1775.86,-29.1 1806.42,-23.41"/>
<polygon fill="black" stroke="black" points="1806.81,-26.89 1816.11,-21.81 1805.68,-19.98 1806.81,-26.89"/>
</g>
<!-- 19&#45;&gt;4 -->
<g id="edge13" class="edge">
<title>19&#45;&gt;4</title>
<path fill="none" stroke="black" d="M1810.39,-148.16C1862.75,-136.1 1940.99,-118.09 1995.6,-105.52"/>
<polygon fill="black" stroke="black" points="1996.09,-108.99 2005.05,-103.34 1994.52,-102.17 1996.09,-108.99"/>
</g>
<!-- 19&#45;&gt;5 -->
<g id="edge15" class="edge">
<title>19&#45;&gt;5</title>
<path fill="none" stroke="black" d="M1690.47,-149.94C1678.88,-147.96 1666.9,-145.91 1655.63,-144 1573.24,-130.02 1478.73,-114.19 1414.69,-103.5"/>
<polygon fill="black" stroke="black" points="1415.43,-100.08 1404.99,-101.89 1414.28,-106.98 1415.43,-100.08"/>
</g>
<!-- 19&#45;&gt;24 -->
<g id="edge35" class="edge">
<title>19&#45;&gt;24</title>
<path fill="none" stroke="black" d="M1776.44,-144.41C1788.07,-135.56 1802.58,-124.52 1815.39,-114.77"/>
<polygon fill="black" stroke="black" points="1817.31,-117.71 1823.14,-108.87 1813.07,-112.14 1817.31,-117.71"/>
</g>
<!-- 20 -->
<g id="node21" class="node">
<title>20</title>
<ellipse fill="none" stroke="black" cx="2262.63" cy="-162" rx="87.73" ry="18"/>
<text text-anchor="middle" x="2262.63" y="-157.8" font-family="Times,serif" font-size="14.00">genus_Oscillibacter</text>
</g>
<!-- 20&#45;&gt;4 -->
<g id="edge14" class="edge">
<title>20&#45;&gt;4</title>
<path fill="none" stroke="black" d="M2218.87,-145.98C2187.07,-135.07 2143.92,-120.26 2110.41,-108.76"/>
<polygon fill="black" stroke="black" points="2111.92,-105.58 2101.32,-105.65 2109.65,-112.2 2111.92,-105.58"/>
</g>
<!-- 20&#45;&gt;8 -->
<g id="edge25" class="edge">
<title>20&#45;&gt;8</title>
<path fill="none" stroke="black" d="M2267.58,-143.7C2269.71,-136.24 2272.26,-127.32 2274.64,-118.97"/>
<polygon fill="black" stroke="black" points="2277.95,-120.14 2277.33,-109.56 2271.22,-118.21 2277.95,-120.14"/>
</g>
<!-- 20&#45;&gt;24 -->
<g id="edge36" class="edge">
<title>20&#45;&gt;24</title>
<path fill="none" stroke="black" d="M2198.1,-149.47C2187.59,-147.62 2176.81,-145.74 2166.63,-144 2089.4,-130.77 2001.59,-116.26 1937.51,-105.78"/>
<polygon fill="black" stroke="black" points="1938.16,-102.34 1927.73,-104.18 1937.03,-109.24 1938.16,-102.34"/>
</g>
<!-- 21 -->
<g id="node22" class="node">
<title>21</title>
<ellipse fill="none" stroke="black" cx="296.63" cy="-234" rx="90.95" ry="18"/>
<text text-anchor="middle" x="296.63" y="-229.8" font-family="Times,serif" font-size="14.00">genus_Parasutterella</text>
</g>
<!-- 21&#45;&gt;11 -->
<g id="edge28" class="edge">
<title>21&#45;&gt;11</title>
<path fill="none" stroke="black" d="M292.43,-215.7C290.64,-208.32 288.5,-199.52 286.5,-191.25"/>
<polygon fill="black" stroke="black" points="289.91,-190.47 284.15,-181.58 283.1,-192.12 289.91,-190.47"/>
</g>
<!-- 21&#45;&gt;23 -->
<g id="edge37" class="edge">
<title>21&#45;&gt;23</title>
<path fill="none" stroke="black" d="M355.89,-220C409.1,-208.32 487.34,-191.15 544.03,-178.71"/>
<polygon fill="black" stroke="black" points="544.58,-182.18 553.59,-176.61 543.08,-175.34 544.58,-182.18"/>
</g>
<!-- 22 -->
<g id="node23" class="node">
<title>22</title>
<ellipse fill="none" stroke="black" cx="1035.63" cy="-234" rx="77.55" ry="18"/>
<text text-anchor="middle" x="1035.63" y="-229.8" font-family="Times,serif" font-size="14.00">genus_Roseburia</text>
</g>
<!-- 22&#45;&gt;26 -->
<g id="edge38" class="edge">
<title>22&#45;&gt;26</title>
<path fill="none" stroke="black" d="M1001.9,-217.46C977.76,-206.35 945.28,-191.39 920.47,-179.96"/>
</g>
<!-- 23&#45;&gt;5 -->
<g id="edge16" class="edge">
<title>23&#45;&gt;5</title>
<path fill="none" stroke="black" d="M684.43,-149.1C696.48,-147.24 708.91,-145.45 720.63,-144 821.05,-131.59 1106.74,-108.9 1252.21,-97.67"/>
<polygon fill="black" stroke="black" points="1252.08,-101.19 1261.78,-96.93 1251.54,-94.21 1252.08,-101.19"/>
</g>
<!-- 23&#45;&gt;6 -->
<g id="edge21" class="edge">
<title>23&#45;&gt;6</title>
<path fill="none" stroke="black" d="M578.47,-144.94C554.6,-134.63 523.47,-121.17 498.26,-110.28"/>
<polygon fill="black" stroke="black" points="499.82,-107.14 489.25,-106.39 497.04,-113.57 499.82,-107.14"/>
</g>
<!-- 23&#45;&gt;14 -->
<g id="edge32" class="edge">
<title>23&#45;&gt;14</title>
<path fill="none" stroke="black" d="M684.11,-149.05C755.18,-136.64 866.08,-117.28 940.02,-104.37"/>
<polygon fill="black" stroke="black" points="940.36,-107.87 949.61,-102.7 939.16,-100.97 940.36,-107.87"/>
</g>
<!-- 24&#45;&gt;0 -->
<g id="edge4" class="edge">
<title>24&#45;&gt;0</title>
<path fill="none" stroke="black" d="M1846.63,-71.7C1846.63,-64.41 1846.63,-55.73 1846.63,-47.54"/>
<polygon fill="black" stroke="black" points="1850.13,-47.62 1846.63,-37.62 1843.13,-47.62 1850.13,-47.62"/>
</g>
<!-- 25&#45;&gt;0 -->
<g id="edge5" class="edge">
<title>25&#45;&gt;0</title>
<path fill="none" stroke="black" d="M2090.46,-145.84C2109.93,-137.9 2129.19,-125.94 2140.63,-108 2149.24,-94.51 2150.9,-84.28 2140.63,-72 2108.85,-33.97 1960.68,-23.19 1887.6,-20.16"/>
<polygon fill="black" stroke="black" points="1887.77,-16.66 1877.64,-19.78 1887.5,-23.66 1887.77,-16.66"/>
</g>
<!-- 25&#45;&gt;24 -->
<g id="edge39" class="edge">
<title>25&#45;&gt;24</title>
<path fill="none" stroke="black" d="M1984.43,-144.59C1958.93,-134.67 1926.22,-121.95 1899.06,-111.39"/>
<polygon fill="black" stroke="black" points="1900.57,-108.22 1889.98,-107.86 1898.03,-114.74 1900.57,-108.22"/>
</g>
<!-- 26&#45;&gt;14 -->
<g id="edge33" class="edge">
<title>26&#45;&gt;14</title>
<path fill="none" stroke="black" d="M915.83,-144.05C933.82,-134.59 956.41,-122.7 975.65,-112.57"/>
<polygon fill="black" stroke="black" points="977.09,-115.77 984.31,-108.01 973.83,-109.57 977.09,-115.77"/>
</g>
<!-- 26&#45;&gt;24 -->
<g id="edge40" class="edge">
<title>26&#45;&gt;24</title>
<path fill="none" stroke="black" d="M993.18,-149C1011.03,-147.21 1029.34,-145.47 1046.63,-144 1285.86,-123.61 1565.89,-106.64 1723.14,-97.73"/>
<polygon fill="black" stroke="black" points="1722.95,-101.25 1732.74,-97.19 1722.56,-94.26 1722.95,-101.25"/>
</g>
</g>
</svg>
