<?xml version="1.0" encoding="UTF-8" standalone="no"?>
<!DOCTYPE svg PUBLIC "-//W3C//DTD SVG 1.1//EN"
 "http://www.w3.org/Graphics/SVG/1.1/DTD/svg11.dtd">
<!-- Generated by graphviz version 12.2.1 (20241206.2353)
 -->
<!-- Pages: 1 -->
<svg width="6301pt" height="922pt"
 viewBox="0.00 0.00 2268.23 332.00" xmlns="http://www.w3.org/2000/svg" xmlns:xlink="http://www.w3.org/1999/xlink">
<g id="graph0" class="graph" transform="scale(2.77778 2.77778) rotate(0) translate(4 328)">
<polygon fill="white" stroke="none" points="-4,4 -4,-328 2264.23,-328 2264.23,4 -4,4"/>
<!-- 0 -->
<g id="node1" class="node">
<title>0</title>
<ellipse fill="none" stroke="black" cx="1001.22" cy="-90" rx="89.88" ry="18"/>
<text text-anchor="middle" x="1001.22" y="-85.8" font-family="Times,serif" font-size="14.00">genus_Akkermansia</text>
</g>
<!-- 1 -->
<g id="node2" class="node">
<title>1</title>
<ellipse fill="none" stroke="black" cx="1309.22" cy="-90" rx="72.73" ry="18"/>
<text text-anchor="middle" x="1309.22" y="-85.8" font-family="Times,serif" font-size="14.00">genus_Alistipes</text>
</g>
<!-- 2 -->
<g id="node3" class="node">
<title>2</title>
<ellipse fill="none" stroke="black" cx="1106.22" cy="-18" rx="83.98" ry="18"/>
<text text-anchor="middle" x="1106.22" y="-13.8" font-family="Times,serif" font-size="14.00">genus_Bacteroides</text>
</g>
<!-- 3 -->
<g id="node4" class="node">
<title>3</title>
<ellipse fill="none" stroke="black" cx="1814.22" cy="-306" rx="81.83" ry="18"/>
<text text-anchor="middle" x="1814.22" y="-301.8" font-family="Times,serif" font-size="14.00">genus_Barnesiella</text>
</g>
<!-- 19 -->
<g id="node20" class="node">
<title>19</title>
<ellipse fill="none" stroke="black" cx="1800.22" cy="-234" rx="138.17" ry="18"/>
<text text-anchor="middle" x="1800.22" y="-229.8" font-family="Times,serif" font-size="14.00">genus_unclassified_Clostridiales</text>
</g>
<!-- 3&#45;&gt;19 -->
<g id="edge13" class="edge">
<title>3&#45;&gt;19</title>
<path fill="none" stroke="black" d="M1810.76,-287.7C1808.59,-276.85 1805.8,-262.92 1803.64,-252.1"/>
</g>
<!-- 4 -->
<g id="node5" class="node">
<title>4</title>
<ellipse fill="none" stroke="black" cx="529.22" cy="-234" rx="66.29" ry="18"/>
<text text-anchor="middle" x="529.22" y="-229.8" font-family="Times,serif" font-size="14.00">genus_Blautia</text>
</g>
<!-- 4&#45;&gt;2 -->
<g id="edge7" class="edge">
<title>4&#45;&gt;2</title>
<path fill="none" stroke="black" d="M467.51,-227.13C378.76,-218.05 223.86,-199.6 207.22,-180 196.87,-167.8 200.1,-158.33 207.22,-144 230.79,-96.56 252.59,-90.52 302.22,-72 429.55,-24.48 826.77,-18.56 1010.83,-18.47"/>
<polygon fill="black" stroke="black" points="1010.59,-21.97 1020.59,-18.47 1010.59,-14.97 1010.59,-21.97"/>
</g>
<!-- 16 -->
<g id="node17" class="node">
<title>16</title>
<ellipse fill="none" stroke="black" cx="529.22" cy="-162" rx="95.79" ry="18"/>
<text text-anchor="middle" x="529.22" y="-157.8" font-family="Times,serif" font-size="14.00">genus_Ruminococcus</text>
</g>
<!-- 4&#45;&gt;16 -->
<g id="edge16" class="edge">
<title>4&#45;&gt;16</title>
<path fill="none" stroke="black" d="M529.22,-215.7C529.22,-208.41 529.22,-199.73 529.22,-191.54"/>
<polygon fill="black" stroke="black" points="532.72,-191.62 529.22,-181.62 525.72,-191.62 532.72,-191.62"/>
</g>
<!-- 20 -->
<g id="node21" class="node">
<title>20</title>
<ellipse fill="none" stroke="black" cx="808.22" cy="-162" rx="165.49" ry="18"/>
<text text-anchor="middle" x="808.22" y="-157.8" font-family="Times,serif" font-size="14.00">genus_unclassified_Erysipelotrichaceae</text>
</g>
<!-- 4&#45;&gt;20 -->
<g id="edge17" class="edge">
<title>4&#45;&gt;20</title>
<path fill="none" stroke="black" d="M576.87,-221.05C619.77,-210.28 683.53,-194.28 733.26,-181.81"/>
<polygon fill="black" stroke="black" points="733.98,-185.24 742.82,-179.41 732.27,-178.45 733.98,-185.24"/>
</g>
<!-- 5 -->
<g id="node6" class="node">
<title>5</title>
<ellipse fill="none" stroke="black" cx="1144.22" cy="-234" rx="97.14" ry="18"/>
<text text-anchor="middle" x="1144.22" y="-229.8" font-family="Times,serif" font-size="14.00">genus_Clostridium.IV</text>
</g>
<!-- 5&#45;&gt;0 -->
<g id="edge1" class="edge">
<title>5&#45;&gt;0</title>
<path fill="none" stroke="black" d="M1083.28,-219.69C1060.41,-211.77 1036.14,-199.34 1020.22,-180 1006.4,-163.21 1001.95,-138.74 1000.79,-119.71"/>
<polygon fill="black" stroke="black" points="1004.29,-119.8 1000.48,-109.92 997.3,-120.02 1004.29,-119.8"/>
</g>
<!-- 11 -->
<g id="node12" class="node">
<title>11</title>
<ellipse fill="none" stroke="black" cx="1425.22" cy="-162" rx="87.73" ry="18"/>
<text text-anchor="middle" x="1425.22" y="-157.8" font-family="Times,serif" font-size="14.00">genus_Oscillibacter</text>
</g>
<!-- 5&#45;&gt;11 -->
<g id="edge18" class="edge">
<title>5&#45;&gt;11</title>
<path fill="none" stroke="black" d="M1200.75,-218.92C1246.84,-207.44 1311.98,-191.21 1360.22,-179.19"/>
<polygon fill="black" stroke="black" points="1360.84,-182.64 1369.7,-176.83 1359.15,-175.85 1360.84,-182.64"/>
</g>
<!-- 6 -->
<g id="node7" class="node">
<title>6</title>
<ellipse fill="none" stroke="black" cx="671.22" cy="-90" rx="80.24" ry="18"/>
<text text-anchor="middle" x="671.22" y="-85.8" font-family="Times,serif" font-size="14.00">genus_Collinsella</text>
</g>
<!-- 6&#45;&gt;2 -->
<g id="edge8" class="edge">
<title>6&#45;&gt;2</title>
<path fill="none" stroke="black" d="M734.94,-78.75C813.12,-66.17 945.56,-44.85 1029.32,-31.37"/>
<polygon fill="black" stroke="black" points="1029.74,-34.85 1039.06,-29.81 1028.63,-27.94 1029.74,-34.85"/>
</g>
<!-- 7 -->
<g id="node8" class="node">
<title>7</title>
<ellipse fill="none" stroke="black" cx="400.22" cy="-90" rx="88.81" ry="18"/>
<text text-anchor="middle" x="400.22" y="-85.8" font-family="Times,serif" font-size="14.00">genus_Coprococcus</text>
</g>
<!-- 8 -->
<g id="node9" class="node">
<title>8</title>
<ellipse fill="none" stroke="black" cx="723.22" cy="-306" rx="61.99" ry="18"/>
<text text-anchor="middle" x="723.22" y="-301.8" font-family="Times,serif" font-size="14.00">genus_Dorea</text>
</g>
<!-- 8&#45;&gt;4 -->
<g id="edge14" class="edge">
<title>8&#45;&gt;4</title>
<path fill="none" stroke="black" d="M685.36,-291.34C654.81,-280.32 611.61,-264.73 578.39,-252.74"/>
<polygon fill="black" stroke="black" points="580.01,-249.6 569.41,-249.5 577.63,-256.19 580.01,-249.6"/>
</g>
<!-- 8&#45;&gt;20 -->
<g id="edge22" class="edge">
<title>8&#45;&gt;20</title>
<path fill="none" stroke="black" d="M727.88,-287.69C733.37,-269.05 743.63,-238.99 758.22,-216 764.46,-206.17 772.67,-196.56 780.64,-188.28"/>
<polygon fill="black" stroke="black" points="783.08,-190.79 787.68,-181.25 778.13,-185.83 783.08,-190.79"/>
</g>
<!-- 9 -->
<g id="node10" class="node">
<title>9</title>
<ellipse fill="none" stroke="black" cx="1801.22" cy="-18" rx="104.89" ry="18"/>
<text text-anchor="middle" x="1801.22" y="-13.8" font-family="Times,serif" font-size="14.00">genus_Faecalibacterium</text>
</g>
<!-- 10 -->
<g id="node11" class="node">
<title>10</title>
<ellipse fill="none" stroke="black" cx="459.22" cy="-306" rx="158.51" ry="18"/>
<text text-anchor="middle" x="459.22" y="-301.8" font-family="Times,serif" font-size="14.00">genus_Lachnospiracea_incertae_sedis</text>
</g>
<!-- 10&#45;&gt;4 -->
<g id="edge15" class="edge">
<title>10&#45;&gt;4</title>
<path fill="none" stroke="black" d="M476.52,-287.7C484.96,-279.27 495.25,-268.97 504.49,-259.73"/>
<polygon fill="black" stroke="black" points="506.93,-262.24 511.53,-252.69 501.98,-257.29 506.93,-262.24"/>
</g>
<!-- 22 -->
<g id="node23" class="node">
<title>22</title>
<ellipse fill="none" stroke="black" cx="154.22" cy="-234" rx="154.22" ry="18"/>
<text text-anchor="middle" x="154.22" y="-229.8" font-family="Times,serif" font-size="14.00">genus_unclassified_Lachnospiraceae</text>
</g>
<!-- 10&#45;&gt;22 -->
<g id="edge25" class="edge">
<title>10&#45;&gt;22</title>
<path fill="none" stroke="black" d="M391.15,-289.38C344.41,-278.65 282.2,-264.37 233.26,-253.14"/>
<polygon fill="black" stroke="black" points="234.09,-249.74 223.56,-250.91 232.52,-256.56 234.09,-249.74"/>
</g>
<!-- 11&#45;&gt;1 -->
<g id="edge4" class="edge">
<title>11&#45;&gt;1</title>
<path fill="none" stroke="black" d="M1398.02,-144.59C1382.35,-135.13 1362.45,-123.12 1345.46,-112.87"/>
<polygon fill="black" stroke="black" points="1347.51,-110.02 1337.14,-107.85 1343.9,-116.01 1347.51,-110.02"/>
</g>
<!-- 12 -->
<g id="node13" class="node">
<title>12</title>
<ellipse fill="none" stroke="black" cx="316.22" cy="-162" rx="99.52" ry="18"/>
<text text-anchor="middle" x="316.22" y="-157.8" font-family="Times,serif" font-size="14.00">genus_Parabacteroides</text>
</g>
<!-- 12&#45;&gt;7 -->
<g id="edge20" class="edge">
<title>12&#45;&gt;7</title>
<path fill="none" stroke="black" d="M336.56,-144.05C346.98,-135.37 359.85,-124.64 371.28,-115.11"/>
<polygon fill="black" stroke="black" points="373.47,-117.85 378.91,-108.76 368.99,-112.47 373.47,-117.85"/>
</g>
<!-- 13 -->
<g id="node14" class="node">
<title>13</title>
<ellipse fill="none" stroke="black" cx="1155.22" cy="-162" rx="126.34" ry="18"/>
<text text-anchor="middle" x="1155.22" y="-157.8" font-family="Times,serif" font-size="14.00">genus_Phascolarctobacterium</text>
</g>
<!-- 13&#45;&gt;0 -->
<g id="edge2" class="edge">
<title>13&#45;&gt;0</title>
<path fill="none" stroke="black" d="M1118.73,-144.41C1097.13,-134.59 1069.59,-122.08 1046.6,-111.63"/>
<polygon fill="black" stroke="black" points="1048.33,-108.57 1037.77,-107.61 1045.43,-114.94 1048.33,-108.57"/>
</g>
<!-- 13&#45;&gt;1 -->
<g id="edge5" class="edge">
<title>13&#45;&gt;1</title>
<path fill="none" stroke="black" d="M1191.72,-144.41C1213.7,-134.42 1241.84,-121.63 1265.07,-111.07"/>
<polygon fill="black" stroke="black" points="1266.33,-114.34 1273.98,-107.02 1263.43,-107.97 1266.33,-114.34"/>
</g>
<!-- 14 -->
<g id="node15" class="node">
<title>14</title>
<ellipse fill="none" stroke="black" cx="1713.22" cy="-90" rx="77.55" ry="18"/>
<text text-anchor="middle" x="1713.22" y="-85.8" font-family="Times,serif" font-size="14.00">genus_Prevotella</text>
</g>
<!-- 14&#45;&gt;2 -->
<g id="edge9" class="edge">
<title>14&#45;&gt;2</title>
<path fill="none" stroke="black" d="M1655.43,-77.59C1644.11,-75.56 1632.32,-73.59 1621.22,-72 1472.44,-50.63 1298.27,-34.57 1195.38,-25.99"/>
<polygon fill="black" stroke="black" points="1195.87,-22.52 1185.62,-25.18 1195.3,-29.5 1195.87,-22.52"/>
</g>
<!-- 14&#45;&gt;9 -->
<g id="edge23" class="edge">
<title>14&#45;&gt;9</title>
<path fill="none" stroke="black" d="M1734.08,-72.41C1745.09,-63.65 1758.82,-52.73 1770.98,-43.06"/>
<polygon fill="black" stroke="black" points="1773.07,-45.86 1778.72,-36.9 1768.72,-40.38 1773.07,-45.86"/>
</g>
<!-- 15 -->
<g id="node16" class="node">
<title>15</title>
<ellipse fill="none" stroke="black" cx="154.22" cy="-306" rx="77.55" ry="18"/>
<text text-anchor="middle" x="154.22" y="-301.8" font-family="Times,serif" font-size="14.00">genus_Roseburia</text>
</g>
<!-- 15&#45;&gt;22 -->
<g id="edge27" class="edge">
<title>15&#45;&gt;22</title>
<path fill="none" stroke="black" d="M154.22,-287.7C154.22,-280.41 154.22,-271.73 154.22,-263.54"/>
<polygon fill="black" stroke="black" points="157.72,-263.62 154.22,-253.62 150.72,-263.62 157.72,-263.62"/>
</g>
<!-- 16&#45;&gt;6 -->
<g id="edge19" class="edge">
<title>16&#45;&gt;6</title>
<path fill="none" stroke="black" d="M562.16,-144.76C582.01,-134.98 607.51,-122.41 628.85,-111.89"/>
<polygon fill="black" stroke="black" points="630.18,-115.14 637.6,-107.58 627.08,-108.86 630.18,-115.14"/>
</g>
<!-- 16&#45;&gt;7 -->
<g id="edge21" class="edge">
<title>16&#45;&gt;7</title>
<path fill="none" stroke="black" d="M498.98,-144.59C481.43,-135.07 459.11,-122.96 440.14,-112.66"/>
<polygon fill="black" stroke="black" points="442.07,-109.72 431.61,-108.03 438.73,-115.88 442.07,-109.72"/>
</g>
<!-- 17 -->
<g id="node18" class="node">
<title>17</title>
<ellipse fill="none" stroke="black" cx="1890.22" cy="-90" rx="81.3" ry="18"/>
<text text-anchor="middle" x="1890.22" y="-85.8" font-family="Times,serif" font-size="14.00">genus_Veillonella</text>
</g>
<!-- 17&#45;&gt;9 -->
<g id="edge24" class="edge">
<title>17&#45;&gt;9</title>
<path fill="none" stroke="black" d="M1869.13,-72.41C1857.99,-63.65 1844.11,-52.73 1831.81,-43.06"/>
<polygon fill="black" stroke="black" points="1833.99,-40.32 1823.97,-36.89 1829.67,-45.83 1833.99,-40.32"/>
</g>
<!-- 18 -->
<g id="node19" class="node">
<title>18</title>
<ellipse fill="none" stroke="black" cx="1593.22" cy="-306" rx="121.52" ry="18"/>
<text text-anchor="middle" x="1593.22" y="-301.8" font-family="Times,serif" font-size="14.00">genus_unclassified_Bacteria</text>
</g>
<!-- 18&#45;&gt;2 -->
<g id="edge10" class="edge">
<title>18&#45;&gt;2</title>
<path fill="none" stroke="black" d="M1594.93,-287.76C1596.13,-269.44 1596.32,-239.89 1588.22,-216 1560.25,-133.49 1534.42,-108.29 1455.22,-72 1374.84,-35.17 1274.2,-23.02 1201.68,-19.43"/>
<polygon fill="black" stroke="black" points="1201.95,-15.93 1191.8,-18.99 1201.64,-22.93 1201.95,-15.93"/>
</g>
<!-- 18&#45;&gt;19 -->
<g id="edge28" class="edge">
<title>18&#45;&gt;19</title>
<path fill="none" stroke="black" d="M1640.45,-289.03C1673.86,-277.73 1718.51,-262.63 1752.12,-251.27"/>
</g>
<!-- 21 -->
<g id="node22" class="node">
<title>21</title>
<ellipse fill="none" stroke="black" cx="898.22" cy="-234" rx="130.65" ry="18"/>
<text text-anchor="middle" x="898.22" y="-229.8" font-family="Times,serif" font-size="14.00">genus_unclassified_Firmicutes</text>
</g>
<!-- 18&#45;&gt;21 -->
<g id="edge29" class="edge">
<title>18&#45;&gt;21</title>
<path fill="none" stroke="black" d="M1490.85,-296.02C1379.42,-286.05 1196.04,-269.11 1038.22,-252 1023.49,-250.4 1007.91,-248.61 992.69,-246.81"/>
</g>
<!-- 20&#45;&gt;0 -->
<g id="edge3" class="edge">
<title>20&#45;&gt;0</title>
<path fill="none" stroke="black" d="M854.45,-144.23C882.76,-133.97 919.07,-120.8 948.49,-110.12"/>
<polygon fill="black" stroke="black" points="949.36,-113.53 957.57,-106.83 946.98,-106.95 949.36,-113.53"/>
</g>
<!-- 21&#45;&gt;1 -->
<g id="edge6" class="edge">
<title>21&#45;&gt;1</title>
<path fill="none" stroke="black" d="M993.9,-221.43C1108.18,-207.41 1284.78,-185.04 1290.22,-180 1306.54,-164.88 1310.65,-139.47 1311.05,-119.67"/>
<polygon fill="black" stroke="black" points="1314.55,-119.67 1310.92,-109.72 1307.55,-119.76 1314.55,-119.67"/>
</g>
<!-- 21&#45;&gt;20 -->
<g id="edge30" class="edge">
<title>21&#45;&gt;20</title>
<path fill="none" stroke="black" d="M876.43,-216.05C865.32,-207.41 851.61,-196.75 839.41,-187.26"/>
<polygon fill="black" stroke="black" points="841.67,-184.58 831.63,-181.2 837.37,-190.11 841.67,-184.58"/>
</g>
<!-- 22&#45;&gt;2 -->
<g id="edge11" class="edge">
<title>22&#45;&gt;2</title>
<path fill="none" stroke="black" d="M156.39,-215.7C161.69,-181.56 178.72,-105.88 228.22,-72 291.56,-28.66 796.83,-20.7 1010.91,-19.29"/>
<polygon fill="black" stroke="black" points="1010.63,-22.79 1020.61,-19.23 1010.59,-15.79 1010.63,-22.79"/>
</g>
<!-- 23 -->
<g id="node24" class="node">
<title>23</title>
<ellipse fill="none" stroke="black" cx="2087.22" cy="-306" rx="173.01" ry="18"/>
<text text-anchor="middle" x="2087.22" y="-301.8" font-family="Times,serif" font-size="14.00">genus_unclassified_Porphyromonadaceae</text>
</g>
<!-- 24 -->
<g id="node25" class="node">
<title>24</title>
<ellipse fill="none" stroke="black" cx="1419.22" cy="-234" rx="159.59" ry="18"/>
<text text-anchor="middle" x="1419.22" y="-229.8" font-family="Times,serif" font-size="14.00">genus_unclassified_Ruminococcaceae</text>
</g>
<!-- 24&#45;&gt;2 -->
<g id="edge12" class="edge">
<title>24&#45;&gt;2</title>
<path fill="none" stroke="black" d="M1476.22,-216.83C1494.1,-208.77 1511.85,-197 1522.22,-180 1530.55,-166.34 1530.37,-157.77 1522.22,-144 1488.4,-86.82 1453.78,-94.36 1391.22,-72 1326.69,-48.94 1250.17,-35.41 1192.68,-27.81"/>
<polygon fill="black" stroke="black" points="1193.31,-24.36 1182.94,-26.56 1192.41,-31.3 1193.31,-24.36"/>
</g>
<!-- 24&#45;&gt;11 -->
<g id="edge26" class="edge">
<title>24&#45;&gt;11</title>
<path fill="none" stroke="black" d="M1420.7,-215.7C1421.33,-208.41 1422.07,-199.73 1422.78,-191.54"/>
<polygon fill="black" stroke="black" points="1426.26,-191.87 1423.63,-181.61 1419.28,-191.28 1426.26,-191.87"/>
</g>
</g>
</svg>
