<?xml version="1.0" encoding="UTF-8" standalone="no"?>
<!DOCTYPE svg PUBLIC "-//W3C//DTD SVG 1.1//EN"
 "http://www.w3.org/Graphics/SVG/1.1/DTD/svg11.dtd">
<!-- Generated by graphviz version 12.2.1 (20241206.2353)
 -->
<!-- Pages: 1 -->
<svg width="5941pt" height="922pt"
 viewBox="0.00 0.00 2138.89 332.00" xmlns="http://www.w3.org/2000/svg" xmlns:xlink="http://www.w3.org/1999/xlink">
<g id="graph0" class="graph" transform="scale(2.77778 2.77778) rotate(0) translate(4 328)">
<polygon fill="white" stroke="none" points="-4,4 -4,-328 2134.89,-328 2134.89,4 -4,4"/>
<!-- 0 -->
<g id="node1" class="node">
<title>0</title>
<ellipse fill="none" stroke="black" cx="746.89" cy="-306" rx="89.88" ry="18"/>
<text text-anchor="middle" x="746.89" y="-301.8" font-family="Times,serif" font-size="14.00">genus_Akkermansia</text>
</g>
<!-- 23 -->
<g id="node24" class="node">
<title>23</title>
<ellipse fill="none" stroke="black" cx="925.89" cy="-234" rx="159.59" ry="18"/>
<text text-anchor="middle" x="925.89" y="-229.8" font-family="Times,serif" font-size="14.00">genus_unclassified_Ruminococcaceae</text>
</g>
<!-- 0&#45;&gt;23 -->
<g id="edge1" class="edge">
<title>0&#45;&gt;23</title>
<path fill="none" stroke="black" d="M786.61,-289.46C811.89,-279.58 844.93,-266.66 872.49,-255.88"/>
<polygon fill="black" stroke="black" points="873.7,-259.17 881.74,-252.27 871.15,-252.65 873.7,-259.17"/>
</g>
<!-- 1 -->
<g id="node2" class="node">
<title>1</title>
<ellipse fill="none" stroke="black" cx="927.89" cy="-306" rx="72.73" ry="18"/>
<text text-anchor="middle" x="927.89" y="-301.8" font-family="Times,serif" font-size="14.00">genus_Alistipes</text>
</g>
<!-- 1&#45;&gt;23 -->
<g id="edge2" class="edge">
<title>1&#45;&gt;23</title>
<path fill="none" stroke="black" d="M927.39,-287.7C927.18,-280.41 926.93,-271.73 926.7,-263.54"/>
<polygon fill="black" stroke="black" points="930.2,-263.51 926.42,-253.62 923.2,-263.71 930.2,-263.51"/>
</g>
<!-- 2 -->
<g id="node3" class="node">
<title>2</title>
<ellipse fill="none" stroke="black" cx="841.89" cy="-90" rx="83.98" ry="18"/>
<text text-anchor="middle" x="841.89" y="-85.8" font-family="Times,serif" font-size="14.00">genus_Bacteroides</text>
</g>
<!-- 3 -->
<g id="node4" class="node">
<title>3</title>
<ellipse fill="none" stroke="black" cx="1298.89" cy="-306" rx="81.83" ry="18"/>
<text text-anchor="middle" x="1298.89" y="-301.8" font-family="Times,serif" font-size="14.00">genus_Barnesiella</text>
</g>
<!-- 4 -->
<g id="node5" class="node">
<title>4</title>
<ellipse fill="none" stroke="black" cx="1235.89" cy="-18" rx="66.29" ry="18"/>
<text text-anchor="middle" x="1235.89" y="-13.8" font-family="Times,serif" font-size="14.00">genus_Blautia</text>
</g>
<!-- 5 -->
<g id="node6" class="node">
<title>5</title>
<ellipse fill="none" stroke="black" cx="1495.89" cy="-306" rx="97.14" ry="18"/>
<text text-anchor="middle" x="1495.89" y="-301.8" font-family="Times,serif" font-size="14.00">genus_Clostridium.IV</text>
</g>
<!-- 6 -->
<g id="node7" class="node">
<title>6</title>
<ellipse fill="none" stroke="black" cx="324.89" cy="-234" rx="97.14" ry="18"/>
<text text-anchor="middle" x="324.89" y="-229.8" font-family="Times,serif" font-size="14.00">genus_Clostridium.XI</text>
</g>
<!-- 11 -->
<g id="node12" class="node">
<title>11</title>
<ellipse fill="none" stroke="black" cx="455.89" cy="-162" rx="158.51" ry="18"/>
<text text-anchor="middle" x="455.89" y="-157.8" font-family="Times,serif" font-size="14.00">genus_Lachnospiracea_incertae_sedis</text>
</g>
<!-- 6&#45;&gt;11 -->
<g id="edge10" class="edge">
<title>6&#45;&gt;11</title>
<path fill="none" stroke="black" d="M355.6,-216.59C373.04,-207.27 395.1,-195.48 414.1,-185.33"/>
<polygon fill="black" stroke="black" points="415.49,-188.55 422.66,-180.75 412.19,-182.38 415.49,-188.55"/>
</g>
<!-- 7 -->
<g id="node8" class="node">
<title>7</title>
<ellipse fill="none" stroke="black" cx="1397.89" cy="-90" rx="107.87" ry="18"/>
<text text-anchor="middle" x="1397.89" y="-85.8" font-family="Times,serif" font-size="14.00">genus_Clostridium.XlVa</text>
</g>
<!-- 7&#45;&gt;4 -->
<g id="edge7" class="edge">
<title>7&#45;&gt;4</title>
<path fill="none" stroke="black" d="M1360.31,-72.76C1336.51,-62.48 1305.61,-49.13 1280.56,-38.3"/>
<polygon fill="black" stroke="black" points="1282.17,-35.19 1271.61,-34.43 1279.4,-41.61 1282.17,-35.19"/>
</g>
<!-- 8 -->
<g id="node9" class="node">
<title>8</title>
<ellipse fill="none" stroke="black" cx="1221.89" cy="-162" rx="80.24" ry="18"/>
<text text-anchor="middle" x="1221.89" y="-157.8" font-family="Times,serif" font-size="14.00">genus_Collinsella</text>
</g>
<!-- 8&#45;&gt;4 -->
<g id="edge8" class="edge">
<title>8&#45;&gt;4</title>
<path fill="none" stroke="black" d="M1223.6,-143.59C1225.97,-119.61 1230.25,-76.14 1233.08,-47.42"/>
<polygon fill="black" stroke="black" points="1236.55,-47.91 1234.05,-37.62 1229.59,-47.23 1236.55,-47.91"/>
</g>
<!-- 15 -->
<g id="node16" class="node">
<title>15</title>
<ellipse fill="none" stroke="black" cx="1081.89" cy="-90" rx="126.34" ry="18"/>
<text text-anchor="middle" x="1081.89" y="-85.8" font-family="Times,serif" font-size="14.00">genus_Phascolarctobacterium</text>
</g>
<!-- 8&#45;&gt;15 -->
<g id="edge13" class="edge">
<title>8&#45;&gt;15</title>
<path fill="none" stroke="black" d="M1190.12,-145.12C1171.07,-135.59 1146.57,-123.34 1125.7,-112.91"/>
<polygon fill="black" stroke="black" points="1127.34,-109.82 1116.83,-108.47 1124.21,-116.08 1127.34,-109.82"/>
</g>
<!-- 9 -->
<g id="node10" class="node">
<title>9</title>
<ellipse fill="none" stroke="black" cx="328.89" cy="-306" rx="88.81" ry="18"/>
<text text-anchor="middle" x="328.89" y="-301.8" font-family="Times,serif" font-size="14.00">genus_Coprococcus</text>
</g>
<!-- 10 -->
<g id="node11" class="node">
<title>10</title>
<ellipse fill="none" stroke="black" cx="104.89" cy="-234" rx="104.89" ry="18"/>
<text text-anchor="middle" x="104.89" y="-229.8" font-family="Times,serif" font-size="14.00">genus_Faecalibacterium</text>
</g>
<!-- 9&#45;&gt;10 -->
<g id="edge14" class="edge">
<title>9&#45;&gt;10</title>
<path fill="none" stroke="black" d="M281.93,-290.33C244.34,-278.58 191.79,-262.16 153.72,-250.26"/>
</g>
<!-- 21 -->
<g id="node22" class="node">
<title>21</title>
<ellipse fill="none" stroke="black" cx="593.89" cy="-234" rx="154.22" ry="18"/>
<text text-anchor="middle" x="593.89" y="-229.8" font-family="Times,serif" font-size="14.00">genus_unclassified_Lachnospiraceae</text>
</g>
<!-- 9&#45;&gt;21 -->
<g id="edge15" class="edge">
<title>9&#45;&gt;21</title>
<path fill="none" stroke="black" d="M381.56,-291.09C425.33,-279.52 487.64,-263.07 533.44,-250.97"/>
</g>
<!-- 10&#45;&gt;11 -->
<g id="edge16" class="edge">
<title>10&#45;&gt;11</title>
<path fill="none" stroke="black" d="M171.32,-219.75C227.17,-208.61 307.43,-192.61 368.49,-180.43"/>
<polygon fill="black" stroke="black" points="369.05,-183.89 378.17,-178.5 367.68,-177.02 369.05,-183.89"/>
</g>
<!-- 12 -->
<g id="node13" class="node">
<title>12</title>
<ellipse fill="none" stroke="black" cx="1110.89" cy="-306" rx="87.73" ry="18"/>
<text text-anchor="middle" x="1110.89" y="-301.8" font-family="Times,serif" font-size="14.00">genus_Oscillibacter</text>
</g>
<!-- 12&#45;&gt;2 -->
<g id="edge3" class="edge">
<title>12&#45;&gt;2</title>
<path fill="none" stroke="black" d="M1112.14,-287.81C1112.65,-268.44 1110.64,-236.95 1094.89,-216 1050,-156.32 968.87,-123.39 910.57,-106.52"/>
<polygon fill="black" stroke="black" points="911.63,-103.18 901.06,-103.86 909.75,-109.92 911.63,-103.18"/>
</g>
<!-- 12&#45;&gt;23 -->
<g id="edge18" class="edge">
<title>12&#45;&gt;23</title>
<path fill="none" stroke="black" d="M1070.29,-289.64C1043.97,-279.68 1009.37,-266.59 980.64,-255.72"/>
<polygon fill="black" stroke="black" points="981.95,-252.47 971.36,-252.21 979.47,-259.02 981.95,-252.47"/>
</g>
<!-- 13 -->
<g id="node14" class="node">
<title>13</title>
<ellipse fill="none" stroke="black" cx="1642.89" cy="-162" rx="99.52" ry="18"/>
<text text-anchor="middle" x="1642.89" y="-157.8" font-family="Times,serif" font-size="14.00">genus_Parabacteroides</text>
</g>
<!-- 13&#45;&gt;7 -->
<g id="edge11" class="edge">
<title>13&#45;&gt;7</title>
<path fill="none" stroke="black" d="M1591.23,-146.24C1553.5,-135.46 1502.11,-120.78 1461.8,-109.26"/>
<polygon fill="black" stroke="black" points="1462.77,-105.9 1452.2,-106.52 1460.85,-112.63 1462.77,-105.9"/>
</g>
<!-- 20 -->
<g id="node21" class="node">
<title>20</title>
<ellipse fill="none" stroke="black" cx="1654.89" cy="-90" rx="130.65" ry="18"/>
<text text-anchor="middle" x="1654.89" y="-85.8" font-family="Times,serif" font-size="14.00">genus_unclassified_Firmicutes</text>
</g>
<!-- 13&#45;&gt;20 -->
<g id="edge19" class="edge">
<title>13&#45;&gt;20</title>
<path fill="none" stroke="black" d="M1645.85,-143.7C1647.71,-132.85 1650.1,-118.92 1651.95,-108.1"/>
</g>
<!-- 14 -->
<g id="node15" class="node">
<title>14</title>
<ellipse fill="none" stroke="black" cx="1410.89" cy="-162" rx="90.95" ry="18"/>
<text text-anchor="middle" x="1410.89" y="-157.8" font-family="Times,serif" font-size="14.00">genus_Parasutterella</text>
</g>
<!-- 14&#45;&gt;7 -->
<g id="edge12" class="edge">
<title>14&#45;&gt;7</title>
<path fill="none" stroke="black" d="M1407.67,-143.7C1406.3,-136.32 1404.67,-127.52 1403.13,-119.25"/>
<polygon fill="black" stroke="black" points="1406.61,-118.79 1401.34,-109.59 1399.72,-120.06 1406.61,-118.79"/>
</g>
<!-- 15&#45;&gt;4 -->
<g id="edge9" class="edge">
<title>15&#45;&gt;4</title>
<path fill="none" stroke="black" d="M1118.38,-72.41C1140.6,-62.31 1169.1,-49.36 1192.47,-38.74"/>
<polygon fill="black" stroke="black" points="1193.77,-41.99 1201.42,-34.66 1190.87,-35.62 1193.77,-41.99"/>
</g>
<!-- 16 -->
<g id="node17" class="node">
<title>16</title>
<ellipse fill="none" stroke="black" cx="829.89" cy="-162" rx="77.55" ry="18"/>
<text text-anchor="middle" x="829.89" y="-157.8" font-family="Times,serif" font-size="14.00">genus_Prevotella</text>
</g>
<!-- 16&#45;&gt;2 -->
<g id="edge4" class="edge">
<title>16&#45;&gt;2</title>
<path fill="none" stroke="black" d="M832.85,-143.7C834.12,-136.32 835.62,-127.52 837.04,-119.25"/>
<polygon fill="black" stroke="black" points="840.46,-120.04 838.7,-109.6 833.56,-118.86 840.46,-120.04"/>
</g>
<!-- 16&#45;&gt;15 -->
<g id="edge20" class="edge">
<title>16&#45;&gt;15</title>
<path fill="none" stroke="black" d="M878.18,-147.59C916.96,-136.81 971.86,-121.56 1014.89,-109.61"/>
<polygon fill="black" stroke="black" points="1015.69,-113.02 1024.39,-106.97 1013.81,-106.28 1015.69,-113.02"/>
</g>
<!-- 17 -->
<g id="node18" class="node">
<title>17</title>
<ellipse fill="none" stroke="black" cx="1688.89" cy="-306" rx="77.55" ry="18"/>
<text text-anchor="middle" x="1688.89" y="-301.8" font-family="Times,serif" font-size="14.00">genus_Roseburia</text>
</g>
<!-- 18 -->
<g id="node19" class="node">
<title>18</title>
<ellipse fill="none" stroke="black" cx="157.89" cy="-162" rx="121.52" ry="18"/>
<text text-anchor="middle" x="157.89" y="-157.8" font-family="Times,serif" font-size="14.00">genus_unclassified_Bacteria</text>
</g>
<!-- 18&#45;&gt;2 -->
<g id="edge5" class="edge">
<title>18&#45;&gt;2</title>
<path fill="none" stroke="black" d="M245.24,-149.15C259.49,-147.34 274.09,-145.56 287.89,-144 452.24,-125.4 644.52,-107.97 753.88,-98.47"/>
<polygon fill="black" stroke="black" points="754.01,-101.97 763.67,-97.62 753.4,-95 754.01,-101.97"/>
</g>
<!-- 19 -->
<g id="node20" class="node">
<title>19</title>
<ellipse fill="none" stroke="black" cx="157.89" cy="-90" rx="138.17" ry="18"/>
<text text-anchor="middle" x="157.89" y="-85.8" font-family="Times,serif" font-size="14.00">genus_unclassified_Clostridiales</text>
</g>
<!-- 18&#45;&gt;19 -->
<g id="edge23" class="edge">
<title>18&#45;&gt;19</title>
<path fill="none" stroke="black" d="M157.89,-143.7C157.89,-132.85 157.89,-118.92 157.89,-108.1"/>
</g>
<!-- 21&#45;&gt;11 -->
<g id="edge17" class="edge">
<title>21&#45;&gt;11</title>
<path fill="none" stroke="black" d="M560.48,-216.05C542.22,-206.79 519.39,-195.21 499.72,-185.23"/>
<polygon fill="black" stroke="black" points="501.31,-182.12 490.81,-180.72 498.15,-188.36 501.31,-182.12"/>
</g>
<!-- 21&#45;&gt;16 -->
<g id="edge21" class="edge">
<title>21&#45;&gt;16</title>
<path fill="none" stroke="black" d="M648.62,-216.76C685.8,-205.74 734.88,-191.18 772.59,-180"/>
<polygon fill="black" stroke="black" points="773.36,-183.42 781.95,-177.22 771.37,-176.71 773.36,-183.42"/>
</g>
<!-- 22 -->
<g id="node23" class="node">
<title>22</title>
<ellipse fill="none" stroke="black" cx="1957.89" cy="-306" rx="173.01" ry="18"/>
<text text-anchor="middle" x="1957.89" y="-301.8" font-family="Times,serif" font-size="14.00">genus_unclassified_Porphyromonadaceae</text>
</g>
<!-- 23&#45;&gt;2 -->
<g id="edge6" class="edge">
<title>23&#45;&gt;2</title>
<path fill="none" stroke="black" d="M928.18,-215.65C929.81,-196.71 929.8,-166.13 916.89,-144 909.53,-131.4 897.85,-121.03 885.87,-112.91"/>
<polygon fill="black" stroke="black" points="887.89,-110.05 877.56,-107.69 884.17,-115.97 887.89,-110.05"/>
</g>
<!-- 23&#45;&gt;16 -->
<g id="edge22" class="edge">
<title>23&#45;&gt;16</title>
<path fill="none" stroke="black" d="M902.65,-216.05C890.29,-207.05 874.93,-195.84 861.5,-186.05"/>
<polygon fill="black" stroke="black" points="863.94,-183.5 853.8,-180.44 859.82,-189.16 863.94,-183.5"/>
</g>
</g>
</svg>
